<?xml version="1.0" encoding="utf-8"?>
<!-- Generator: Adobe Adobe Illustrator 24.2.0, SVG Export Plug-In . SVG Version: 6.00 Build 0)  -->
<svg version="1.1" id="Layer_1" xmlns="http://www.w3.org/2000/svg" xmlns:xlink="http://www.w3.org/1999/xlink" x="0px" y="0px"
	 width="2388px" height="1668px" viewBox="0 0 2388 1668" style="enable-background:new 0 0 2388 1668;" xml:space="preserve">
<style type="text/css">
	.st0{fill:#D5D5D5;}
	.st1{fill:#30281D;}
</style>
<g>
	<g>
		<path class="st0" d="M1203.87,796.22c-0.33-2.41-0.84-4.39-0.79-6.34c0.24-8.96,0.02-18,1.12-26.86
			c1.42-11.45,5.34-22.32,11.1-32.36c4.72-8.24,10.11-16.06,17.1-22.6c14.77-13.83,31.98-22.89,51.85-27.27
			c12.99-2.86,26.07-3.53,39.14-2.66c15.1,1,29.79,4.3,43.73,10.74c9.96,4.6,18.78,10.66,26.51,18.29
			c13.06,12.89,20.91,28.7,24.31,46.58c1.6,8.42,2.84,17.11,2.68,25.64c-0.51,26.51-8.96,49.95-27.71,69.48
			c-13.83,14.41-30.49,23.46-49.41,28.69c-9.78,2.7-19.87,3.45-30.06,3.59c-17.78,0.25-35.17-1.69-51.89-7.92
			c-20.6-7.67-36.38-21.02-46.73-40.59C1208.84,821.34,1204.83,809.48,1203.87,796.22z M1372.06,774.5c-0.01-2.33,0-4.67-0.02-7
			c-0.14-15.77-3.92-30.62-11.93-44.2c-13.25-22.48-33.9-29.65-56.74-27.02c-13.83,1.59-24.73,9.47-33.18,20.38
			c-13.14,16.96-17.92,36.85-19.01,57.74c-0.45,8.59,0.37,17.26,0.85,25.88c0.77,13.66,4.49,26.51,11.75,38.14
			c5.56,8.91,12.89,16,22.88,20.02c10.58,4.26,21.37,5.61,32.67,3.62c10.63-1.87,19.87-6.28,27.78-13.61
			c9.31-8.63,14.82-19.57,18.95-31.28C1370.83,803.7,1372.39,789.72,1372.06,774.5z"/>
		<path class="st1" d="M2204.55,859.55c-8.2,8.09-17.77,12.72-28.69,14.88c-12.19,2.42-24.48,2.46-36.82,2.36
			c-18.49-0.15-36.97-0.04-56.19-0.04c2.99-64.88,3.01-129.55-0.04-194.56c4.23,0.33,8.02,0.91,11.8,0.89
			c13.99-0.08,27.99-0.26,41.98-0.59c13.66-0.32,27.32-1.14,40.86,1.62c7.77,1.58,15.01,4.42,21.56,8.87
			c4.49,3.04,7.9,7.12,10.47,11.89c8.67,16.05,5.36,37.96-7.46,50.9c-6.61,6.67-14.47,11.12-23.23,14.16
			c-2.26,0.78-4.51,1.57-6.82,2.87c22.63,5.74,41.98,15.45,46.36,40.75C2221.25,830.52,2217.14,846.37,2204.55,859.55z
			 M2127.08,796.52c-0.23,21.39,0.07,42.78,0.56,64.81c5.4,0,10.04,0.04,14.68-0.01c13.02-0.12,22.2-6.39,27.49-18.05
			c6.08-13.4,5.66-27.17,0.79-40.83c-2.64-7.41-7.85-12.69-15.11-15.75c-9.02-3.79-18.41-3.24-28.41-2.51
			C2127.09,788.27,2127.09,791.9,2127.08,796.52z M2160.85,759.38c10.9-10.32,12.54-23.25,10.45-37.2
			c-1.43-9.54-6.19-16.95-15.08-20.88c-8.91-3.94-18.33-3.74-27.97-1.95c-1.44,22.69-1.57,45.05-0.88,67.67
			C2139.32,767.73,2150.73,768.11,2160.85,759.38z"/>
		<path class="st0" d="M851.09,876.97c-4.68,0.32-8.9,0.64-13.31,0.97c-0.33-1.88-0.76-3-0.68-4.09c0.9-12.4,1.88-24.79,2.84-37.18
			c0.03-0.33,0.04-0.67,0.05-1c0.36-12.13,0.78-24.26,1.05-36.39c0.41-18.3,0.83-36.59,1.01-54.89c0.15-15.6,0.05-31.21-0.13-46.81
			c-0.06-4.92-0.73-9.83-1.2-15.7c5.24,0.4,9.6,1.01,13.95,0.98c4.44-0.03,8.88-0.69,13.46-1.09c4.77,5.12,9.46,10.04,14.02,15.08
			c4.12,4.56,8.01,9.32,12.15,13.86c11.65,12.78,23.37,25.49,35.06,38.24c10.9,11.89,21.79,23.78,32.67,35.68
			c8.85,9.68,17.69,19.38,26.64,29.19c1.61-3.48,1.07-57.17,0.77-65.67c-0.76-21.75-0.65-43.52-0.9-66.15
			c4.3,0.31,8.65,0.88,13,0.87c4.23-0.01,8.46-0.62,12.37-0.94c0.54,0.87,0.87,1.16,0.85,1.42c-0.47,8.1-0.98,16.19-1.48,24.28
			c-0.04,0.66-0.19,1.32-0.21,1.98c-0.34,10.46-0.75,20.92-1,31.39c-0.42,17.79-0.83,35.59-1.09,53.38
			c-0.38,25.96-0.62,51.92-0.92,77.88c-0.02,1.63,0,3.25,0,5.19c-7.7,0-14.89,0-24.13,0c-1.15-1.38-3.33-4.1-5.62-6.72
			c-11.92-13.63-23.83-27.27-35.84-40.82c-9.15-10.32-18.4-20.56-27.72-30.72c-12.48-13.6-25.07-27.1-37.61-40.64
			c-3.84-4.15-7.66-8.32-11.52-12.44c-0.86-0.92-1.89-1.69-3.36-2.99c-0.45,4.56-1.14,8.44-1.16,12.33
			c-0.1,27.83-0.23,55.65,0.03,83.48c0.11,11.43,1.2,22.86,1.78,34.29c0.07,1.39-0.29,2.81-0.4,3.76
			C859.76,876.96,855.66,876.96,851.09,876.97z"/>
		<path class="st1" d="M2001.05,837.67c5.41-11.68,7.89-23.73,8.76-36.09c2.13-30.13,1.46-60.28,0.42-90.43
			c-0.33-9.47-0.77-18.93-1.16-28.33c9.52,0,18.74,0,28.24,0c0.05,0.27,0.33,0.9,0.29,1.5c-2.72,37.58-3.19,75.24-3.82,112.89
			c-0.22,12.87-2.25,25.5-6.51,37.75c-7.42,21.35-22.36,34.59-43.67,41.06c-16.55,5.03-33.5,5.19-50.52,3.49
			c-11.15-1.11-22.09-3.4-32.21-8.45c-22.59-11.28-34.38-30.04-35.99-54.83c-0.96-14.77-0.24-29.64-0.34-44.46
			c-0.19-28.49-0.42-56.98-0.64-85.47c-0.01-1.3,0-2.59,0-3.52c15.51,0,30.6,0,46.15,0c-0.45,5.73-1.06,11.66-1.34,17.6
			c-0.73,15.47-1.62,30.95-1.88,46.43c-0.3,17.65-0.21,35.32,0.15,52.97c0.22,10.68,2.01,21.22,5.35,31.42
			c5.54,16.91,16.51,27.61,34.74,29.24c8.09,0.73,16.34,1.16,24.39,0.41c12.34-1.15,21-8.53,27.26-18.92
			C1999.48,840.66,2000.16,839.33,2001.05,837.67z"/>
		<path class="st0" d="M1122,680.93c21.46-0.33,42.42-0.65,63.39-1.02c1.48-0.03,2.94-0.56,4.42-0.6c1.9-0.05,3.81,0.16,5.75,0.25
			c0,8.63,0,16.63,0,24.91c-0.78,0.15-1.59,0.52-2.34,0.42c-22.2-2.83-44.51-1.7-66.78-2.01c-4.81-0.07-9.61-0.56-14.41-0.8
			c-1.11-0.05-2.23,0.17-4.02,0.32c3.6,6.66,6.83,12.96,10.35,19.08c10.6,18.45,21.11,36.97,32.05,55.23
			c15.04,25.1,30.43,49.99,45.71,74.94c3.38,5.53,6.91,10.97,10.37,16.46c1.38,2.19,2.34,4.43,0.68,7.19c-53.12,0-106.33,0-159.48,0
			c0-7.89,0-15.13,0-22.94c10.62-1.65,21.45,0.93,32.3,0.71c10.79-0.22,21.59,0.68,32.4,0.84c10.96,0.17,21.93,0.04,33.86,0.04
			c-3.17-5.74-5.88-10.78-8.72-15.74c-7.27-12.7-14.52-25.41-21.9-38.04c-11.91-20.39-23.8-40.79-35.92-61.05
			c-9.99-16.69-20.31-33.19-30.44-49.79c-1.64-2.69-3.23-5.5-1.24-9.52C1072.34,680.18,1096.92,680.56,1122,680.93z"/>
		<path class="st0" d="M689.68,687.57c-0.3-1.87-0.47-3.31-0.69-5.12c37.11,0,73.74,0,110.88,0c0,3.37,0.11,6.65-0.03,9.92
			c-0.15,3.64-0.61,7.26-0.78,10.9c-2.11,44.94-0.73,89.9-0.91,134.85c-0.04,9.59,1.19,19.19,1.72,28.79
			c0.18,3.29,0.03,6.59,0.03,10.1c-37,0.2-73.56-0.8-110.36,0.95c0-9.1,0-17.24,0-25.43c21.27,1.31,42.37,2.61,63.22,3.89
			c1.51-4.39,2.02-59.77,0.86-70.04c-20.76-1.67-41.53,1.14-62.42,1.66c-2.53-4.66,0.6-8.84-0.08-13.04
			c-0.64-3.98-0.52-8.09-0.77-12.75c21.35,0.77,42.14,2.44,63.7,1.54c-0.24-19.86,0.74-39.41-1.55-59.55
			c-2.21,0.23-4.41,0.58-6.63,0.67c-10.13,0.4-20.26,0.58-30.38,1.11c-7.27,0.38-14.52,1.21-21.79,1.77
			c-1.26,0.1-2.55-0.16-3.91-0.26C689.81,700.75,689.81,694.38,689.68,687.57z"/>
		<path class="st1" d="M1622.01,880.45c-14.22-0.14-27.75-1.56-40.83-5.96c-35.66-12-57.12-36.2-62.37-73.74
			c-2.83-20.24-0.9-40.26,6.35-59.49c9.63-25.55,27.19-43.78,52.68-53.48c34.28-13.05,68.73-12.46,102.9,0.99
			c1.39,0.55,2.74,1.22,4.08,1.88c0.89,0.44,1.73,0.97,2.54,1.43c-2.13,9.45-4.23,18.79-6.48,28.79c-0.64,0.07-2.03,0.24-2.29,0.27
			c-6.71-5.94-12.18-11.95-18.73-16.35c-21.49-14.42-51.55-10.75-70.79,7.96c-11.62,11.3-18.39,25.28-21.81,40.83
			c-4.02,18.27-4.4,36.75-0.24,55.04c4.32,18.99,13.3,35.28,30.49,45.65c17.78,10.74,36.75,11.8,56.3,5.44
			c10.76-3.5,20.38-8.95,28.58-17.09c1.29,0.7,2.41,1.3,3.59,1.94c-2.14,8.03-4.23,15.87-6.48,24.31
			c-8.63,4.59-18.44,7.72-28.68,9.11C1641.45,879.28,1631.95,879.67,1622.01,880.45z"/>
		<path class="st0" d="M316.31,738.27c-8.13,19.72-16.4,38.96-23.99,58.48c-10.06,25.86-19.58,51.93-29.35,77.9
			c-0.35,0.92-0.84,1.79-1.32,2.8c-8.54,0-17.03,0-25.15,0c-25.7-65.12-51.29-129.97-76.94-195c16.94,0,33.77,0,50.58,0
			c16.53,46.23,33.11,92.58,49.68,138.94c19.77-45.97,37.52-92.15,53.3-138.94c8.83,0,17.16,0,26.36,0
			C332.24,701.45,323.74,719.44,316.31,738.27z"/>
		<path class="st0" d="M430.13,787.82c-6.1-16.58-12.09-32.78-18.47-50.02c-11.36,23.28-18.49,47.14-28.36,69.87
			c-9.9,22.8-17.62,46.41-24.58,69.63c-10.15,0-19.13,0-28.28,0c27.09-66.01,53.98-131.52,80.75-196.74c7.41,0,14.48,0,22.46,0
			c6.04,15.92,12.3,32.48,18.6,49.03c6.32,16.61,12.55,33.26,19.06,49.8c6.45,16.39,13.06,32.71,19.87,48.96
			c6.82,16.29,13.97,32.44,21.17,49.1c-16.83,0-32.85,0-49.56,0c-0.6-1.17-1.61-2.66-2.17-4.3c-5.62-16.35-11-32.78-16.78-49.07
			C439.57,812.03,434.79,800.15,430.13,787.82z"/>
		<path class="st0" d="M540.04,757c-0.04-11.16,0.15-21.83-0.18-32.48c-0.37-12.27-1.2-24.53-1.81-36.79
			c-0.08-1.63-0.01-3.27-0.01-5.29c16.07,0,31.68,0,47.89,0c0,1.88,0.08,3.66-0.02,5.43c-0.25,4.63-0.65,9.26-0.86,13.89
			c-2.24,49.09-0.63,98.2-1,147.3c-0.02,1.99,0,3.97,0,6.38c11.04,1.71,21.73-0.68,32.42-0.71c10.53-0.02,21.06-1.65,32.04-2.62
			c0,8.16,0,16.16,0,24.8c-3.11,1.95-6.94,0.89-10.61,0.79c-2.48-0.07-4.94-0.63-7.42-0.64c-26.82-0.07-53.63-0.1-80.45-0.08
			c-3.46,0-6.92,0.35-10.85,0.57c-0.32-0.81-1.09-1.83-1.06-2.82c0.11-4.97,0.43-9.94,0.68-14.91c0.07-1.33,0.18-2.66,0.2-3.99
			c0.35-28.79,0.7-57.57,1.03-86.36C540.08,765.5,540.04,761.5,540.04,757z"/>
		<path class="st1" d="M1765.59,697.97c-0.55,17.8-1.45,35.12-1.52,52.44c-0.13,32.99,0.21,65.98,0.38,98.96
			c0.01,2.13,0.19,4.25,0.31,6.73c21.59,0.48,42.76-1.2,63.97-3.3c0,8.14,0,15.86,0,23.42c-18.25,0-36.36,0-54.48,0
			c-17.97,0-35.94,0-54.37,0c2.98-64.33,2.98-128.9-0.03-193.4c15.48,0,30.66,0,45.78,0
			C1765.61,687.56,1765.61,692.53,1765.59,697.97z"/>
	</g>
</g>
</svg>
